<svg width="100" height="100" version="1.1" xmlns="http://www.w3.org/2000/svg" desc="Created with imagetracer.js version 1.2.6" ><path fill="rgb(0,0,0)" stroke="rgb(0,0,0)" stroke-width="1" opacity="0" d="M 0 0 L 100 0 L 100 100 L 0 100 L 0 0 Z M 81 11 Q 78 12 79 18 Q 80 20 86 19 Q 88 18 87 13 Q 86 10 81 11 Z M 76 12 Q 75 15 78 14 Q 79 11 76 12 Z M 42 13 L 26 21 Q 16 28 13 42 L 13 59 Q 10 60 11 66 Q 12 68 17 67 L 21 75 Q 28 84 42 87 L 59 87 Q 71 84 79 75 L 79 78 Q 85 80 83 74 L 79 74 L 82 71 L 87 59 L 87 42 L 81 25 L 79 22 L 59 13 L 42 13 Z M 85 22 Q 83 28 89 26 Q 91 20 85 22 Z M 23 85 Q 21 91 27 89 Q 29 83 23 85 Z " /><path fill="rgb(224,206,129)" stroke="rgb(224,206,129)" stroke-width="1" opacity="0.8588235294117647" d="M 80.5 11 Q 85.8 9.8 87 12.5 Q 88.3 17.8 85.5 19 Q 80.3 20.3 79 17.5 Q 77.8 12.3 80.5 11 Z " /><path fill="rgb(224,206,129)" stroke="rgb(224,206,129)" stroke-width="1" opacity="0.8588235294117647" d="M 76 12 Q 79 11 78 14 Q 75 15 76 12 Z " /><path fill="rgb(224,206,129)" stroke="rgb(224,206,129)" stroke-width="1" opacity="0.8588235294117647" d="M 65.5 21 L 68.5 22 L 73.5 21 L 80 25.5 Q 82.7 27.8 82 33.5 L 77.5 40 Q 75.2 42.7 69.5 42 L 65 39.5 L 70.5 33 L 67 37.5 L 67.5 40 L 69 39.5 L 69 41 L 74 41 L 74.5 39 L 76 39.5 L 76.5 38 Q 77.8 40.3 79 37.5 L 73 32.5 L 73 30.5 L 77.5 26 L 79 25.5 L 76 24.5 L 75.5 23 L 74 23.5 L 74 22 L 69 22 L 68.5 24 L 67 23.5 L 66.5 25 Q 65.3 22.7 64 25.5 L 64.5 27 L 63 27.5 L 63.5 29 Q 61.3 28.3 62 30.5 L 61 30.5 L 62 26.5 L 61.5 25 L 62.5 26 L 66 22.5 L 65.5 21 Z M 78 27 L 74 31 L 74 33 Q 74 37 80 36 L 79 35 L 81 34 L 81 29 L 80 29 L 80 28 L 78 27 Z " /><path fill="rgb(224,206,129)" stroke="rgb(224,206,129)" stroke-width="1" opacity="0.8588235294117647" d="M 67.5 26 L 70.5 30 L 67.5 26 Z " /><path fill="rgb(224,206,129)" stroke="rgb(224,206,129)" stroke-width="1" opacity="0.8588235294117647" d="M 26.5 32 L 27.5 34 L 26.5 32 Z " /><path fill="rgb(224,206,129)" stroke="rgb(224,206,129)" stroke-width="1" opacity="0.8588235294117647" d="M 35.5 40 L 36.5 42 L 35.5 40 Z " /><path fill="rgb(224,206,129)" stroke="rgb(224,206,129)" stroke-width="1" opacity="0.8588235294117647" d="M 62.5 40 L 60.5 43 L 62.5 40 Z " /><path fill="rgb(224,206,129)" stroke="rgb(224,206,129)" stroke-width="1" opacity="0.8588235294117647" d="M 44.5 48 L 46.5 51 L 44.5 48 Z " /><path fill="rgb(224,206,129)" stroke="rgb(224,206,129)" stroke-width="1" opacity="0.8588235294117647" d="M 53.5 48 L 51.5 51 L 53.5 48 Z " /><path fill="rgb(224,206,129)" stroke="rgb(224,206,129)" stroke-width="1" opacity="0.8588235294117647" d="M 12.5 59 Q 18 58 19 61.5 Q 19.8 66.3 16.5 67 Q 12 68 11 65.5 Q 9.8 60.3 12.5 59 Z " /><path fill="rgb(224,206,129)" stroke="rgb(224,206,129)" stroke-width="1" opacity="0.8588235294117647" d="M 78.5 74 Q 85.3 72 83 78 Q 77.8 80.1 79 75.5 L 78.5 74 Z " /><path fill="rgb(230,237,185)" stroke="rgb(230,237,185)" stroke-width="1" opacity="0.9803921568627451" d="M 41.5 13 L 58.5 13 L 72 19.5 L 70.5 20 Q 61.9 11.6 42.5 14 Q 28.6 17.6 21 27.5 L 14 42.5 L 14 57.5 L 14.5 59 L 13 58.5 L 13 41.5 Q 16.6 28.6 25.5 21 L 41.5 13 Z " /><path fill="rgb(230,237,185)" stroke="rgb(230,237,185)" stroke-width="1" opacity="0.9803921568627451" d="M 83.5 33 L 87 41.5 L 87 58.5 Q 83.9 70.9 75.5 78 Q 68.7 84.2 58.5 87 L 41.5 87 Q 29.1 83.9 22 75.5 L 17 68.5 L 17 66.5 L 18 66.5 Q 20.9 74.6 27.5 79 L 42.5 86 L 57.5 86 Q 71.4 82.4 79 72.5 L 86 57.5 L 86 42.5 L 83 35.5 L 83.5 33 Z " /><path fill="rgb(230,237,183)" stroke="rgb(230,237,183)" stroke-width="1" opacity="1" d="M 42.5 14 Q 61.3 11.7 70 19.5 Q 63.6 20.6 61 25.5 L 60 31 L 26.5 31 L 26 32.5 L 47 51.5 L 47 67.5 L 44.5 70 L 38.5 71 L 36.5 73 L 28 73.5 L 63.5 74 L 63.5 73 L 53.5 70 L 51 67.5 L 51 51.5 L 59.5 43 L 63.5 40 Q 66.3 44.7 75.5 43 L 82 37.5 Q 81.3 34.9 84 36 Q 87.7 43.4 86 57.5 Q 82.4 71.4 72.5 79 L 57.5 86 L 42.5 86 Q 28.6 82.4 21 72.5 L 18 65.5 L 19 61.5 L 14 57.5 Q 12.5 46 15 38.5 Q 19 27.5 27.5 21 L 42.5 14 Z M 67 73 L 67 74 L 72 74 L 67 73 Z " /><path fill="rgb(230,237,183)" stroke="rgb(230,237,183)" stroke-width="1" opacity="1" d="M 69.5 23 Q 71.8 22.3 71 24.5 L 72 24.5 Q 71.3 22.3 73.5 23 L 77 25.5 L 72 29.5 L 71.5 26 L 70.5 29 L 66.5 26 L 69.5 31 Q 62.5 32.5 63 29.5 L 67.5 24 L 69.5 23 Z " /><path fill="rgb(230,237,183)" stroke="rgb(230,237,183)" stroke-width="1" opacity="1" d="M 77.5 27 Q 79.8 26.3 79 28.5 L 80 31 L 76 31.5 L 80 32 L 79 36 L 74 32.5 L 74 30.5 L 77.5 27 Z " /><path fill="rgb(230,237,183)" stroke="rgb(230,237,183)" stroke-width="1" opacity="1" d="M 30 32 L 67.5 32 L 68 33.5 L 64.5 37 L 34.5 37 L 30 33.5 L 30 32 Z " /><path fill="rgb(230,237,183)" stroke="rgb(230,237,183)" stroke-width="1" opacity="1" d="M 72.5 33 L 77 37.5 L 75.5 39 L 72 40 L 72.5 33 Z " /><path fill="rgb(230,237,183)" stroke="rgb(230,237,183)" stroke-width="1" opacity="1" d="M 70.5 34 L 71 40 L 67 39 L 70.5 34 Z " /><path fill="rgb(230,237,183)" stroke="rgb(230,237,183)" stroke-width="1" opacity="1" d="M 47.5 48 L 51 48.5 L 50 49.5 L 50 69.5 L 55 72.5 L 43.5 73 L 43.5 72 L 48 69.5 L 48 49.5 L 47.5 48 Z " /><path fill="rgb(11,158,158)" stroke="rgb(11,158,158)" stroke-width="1" opacity="1" d="M 35.5 37 L 63 37.5 L 54.5 46 L 47.5 48 Q 38.8 44.5 35.5 37 Z " /><path fill="rgb(11,158,158)" stroke="rgb(11,158,158)" stroke-width="1" opacity="1" d="M 47.5 69 L 46.5 71 L 47.5 69 Z " /><path fill="rgb(11,158,158)" stroke="rgb(11,158,158)" stroke-width="1" opacity="1" d="M 50.5 69 L 51.5 71 L 50.5 69 Z " /><path fill="rgb(103,84,62)" stroke="rgb(103,84,62)" stroke-width="1" opacity="0.9725490196078431" d="M 68.5 20 Q 78.2 18.8 81 24.5 Q 84 27.5 83 34.5 L 78.5 41 Q 75.5 44 68.5 43 L 62.5 40 L 51 50.5 L 51 67.5 L 53.5 70 L 64 73.5 L 28.5 74 L 28.5 73 L 36.5 73 L 44.5 70 L 47 67.5 L 47 50.5 L 44.5 48 L 26 31.5 L 60 31 Q 60.3 24.9 64.5 22 L 68.5 20 Z M 70 21 L 70 22 L 74 22 L 70 21 Z M 67 22 L 65 24 L 71 30 L 72 27 L 73 30 L 77 25 Q 79 23 77 22 L 72 23 L 72 25 L 71 23 L 67 22 Z M 64 25 L 62 27 L 63 31 L 70 31 L 64 25 Z M 80 25 L 78 26 L 73 31 L 73 33 L 79 37 L 80 38 L 79 36 L 81 36 L 80 32 L 77 32 L 80 31 L 81 28 L 80 28 L 80 27 L 80 25 Z M 82 29 L 81 34 L 82 34 L 82 29 Z M 30 32 L 44 46 L 47 47 L 48 50 L 48 69 L 45 71 L 44 73 L 55 73 L 50 69 L 50 50 L 51 47 L 55 46 L 69 33 L 30 32 Z M 71 33 L 66 39 L 66 40 L 68 39 L 68 41 L 71 40 L 71 33 Z M 73 33 L 72 40 L 76 41 L 75 40 L 77 40 L 78 40 L 73 33 Z M 70 41 L 70 42 L 74 42 L 70 41 Z " /><path fill="rgb(103,84,62)" stroke="rgb(103,84,62)" stroke-width="1" opacity="0.9725490196078431" d="M 85 22 Q 91 20 89 26 Q 83 28 85 22 Z " /><path fill="rgb(103,84,62)" stroke="rgb(103,84,62)" stroke-width="1" opacity="0.9725490196078431" d="M 66.5 73 L 72 73.5 L 66.5 74 L 66.5 73 Z " /><path fill="rgb(103,84,62)" stroke="rgb(103,84,62)" stroke-width="1" opacity="0.9725490196078431" d="M 23 85 Q 29 83 27 89 Q 21 91 23 85 Z " /></svg>